<?xml version="1.0" encoding="UTF-8"?>
<!DOCTYPE svg PUBLIC "-//W3C//DTD SVG 1.1//EN" "http://www.w3.org/Graphics/SVG/1.1/DTD/svg11.dtd">
<!-- Creator: CorelDRAW X5 -->
<svg xmlns="http://www.w3.org/2000/svg" xml:space="preserve" width="220px" height="62px" style="shape-rendering:geometricPrecision; text-rendering:geometricPrecision; image-rendering:optimizeQuality; fill-rule:evenodd; clip-rule:evenodd"
viewBox="0 0 220 62"
 xmlns:xlink="http://www.w3.org/1999/xlink">
 <defs>
  <style type="text/css">
   <![CDATA[
    .fil0 {fill:#FEFEFE}
    .fil1 {fill:#FEFEFE;fill-rule:nonzero}
   ]]>
  </style>
 </defs>
 <g id="Camada_x0020_1">
  <metadata id="CorelCorpID_0Corel-Layer"/>
  <g id="_470940992">
   <path id="_470943152" class="fil0" d="M46.7595 4.10202l1.03805 -2.50895 1.36857 0 -1.45361 2.50895 -0.953009 0zm-32.5336 -0.754584l-0.764222 0.720568 -0.110268 -0.127276c-0.883844,-1.01849 -2.016,-1.48139 -3.35906,-1.48139 -1.25943,0 -2.32725,0.412725 -3.21534,1.30847 -0.885261,0.892348 -1.27928,1.99503 -1.27928,3.24624 0,1.25008 0.389481,2.35729 1.27871,3.24624 0.889513,0.889513 1.9647,1.29373 3.21591,1.29373 1.34873,0 2.5064,-0.461198 3.37153,-1.5086l0.108567 -0.131244 0.78293 0.718017 -0.10148 0.118772c-1.0457,1.22287 -2.56082,1.84989 -4.16155,1.84989 -1.54063,0 -2.88964,-0.50967 -3.98665,-1.59903 -1.10353,-1.09559 -1.6149,-2.43638 -1.6149,-3.98779 0,-1.55112 0.511371,-2.89191 1.6149,-3.9875 1.09644,-1.08851 2.44432,-1.61405 3.98665,-1.61405 1.64155,0 3.03903,0.584505 4.1298,1.81758l0.103748 0.117354zm1.90375 5.11342c0,-1.14888 0.377575,-2.14753 1.19254,-2.96249 0.814962,-0.814962 1.81361,-1.19254 2.96221,-1.19254 1.14973,0 2.13279,0.377859 2.94747,1.19254 0.814395,0.814395 1.20784,1.81191 1.20784,2.96249 0,1.15058 -0.393449,2.14838 -1.20784,2.96249 -0.814395,0.814678 -1.79802,1.19254 -2.94747,1.19254 -1.1486,0 -2.14753,-0.377575 -2.96221,-1.19254 -0.814962,-0.814962 -1.19254,-1.81361 -1.19254,-2.96249zm1.07688 0c0,0.8606 0.261922,1.61915 0.872505,2.23711 0.600662,0.608032 1.35666,0.886112 2.20536,0.886112 0.850962,0 1.59081,-0.27893 2.1909,-0.886112 0.610017,-0.617387 0.887529,-1.37424 0.887529,-2.23711 0,-0.859749 -0.282331,-1.60951 -0.887529,-2.22208 -0.603497,-0.610584 -1.33257,-0.901135 -2.1909,-0.901135 -0.856915,0 -1.60186,0.290268 -2.20536,0.901135 -0.605481,0.612851 -0.872505,1.36432 -0.872505,2.22208zm10.7289 -2.9693c0.558709,-0.793418 1.43802,-1.11033 2.49052,-1.11033 0.854363,0 1.62199,0.256819 2.22548,0.877608 0.615969,0.632977 0.859749,1.44057 0.859749,2.31279l0 4.84838 -1.07717 0 0 -4.69758c0,-1.34277 -0.793135,-2.30967 -2.17389,-2.30967 -1.57805,0 -2.3247,1.31074 -2.3247,2.7618l0 4.24545 -1.07688 0 0 -7.91831 1.07688 0 0 0.98986zm8.68508 4.79764c0.324,0.891214 1.11685,1.26482 2.03301,1.26482 0.797104,0 1.63134,-0.310111 1.63134,-1.22457 0,-0.343276 -0.100914,-0.650552 -0.375591,-0.867403 -0.394867,-0.312095 -1.008,-0.58167 -1.46948,-0.776694 -1.13443,-0.479339 -2.11805,-0.976537 -2.11805,-2.34936 0,-1.25858 1.05931,-2.03018 2.25638,-2.03018 0.977104,0 1.72999,0.398268 2.17843,1.27871l0.073134 0.143717 -0.898867 0.460347 -0.076819 -0.134079c-0.279213,-0.48841 -0.700158,-0.716883 -1.26085,-0.716883 -0.617954,0 -1.19452,0.323434 -1.19452,0.998364 0,0.864001 0.965482,1.18914 1.63276,1.46296 1.21578,0.498898 2.33065,1.06186 2.33065,2.53049 0,1.51229 -1.31981,2.25638 -2.70851,2.25638 -1.34051,0 -2.55742,-0.619938 -2.97241,-1.95194l-0.0450709 -0.145418 0.928348 -0.353764 0.0561261 0.154488zm10.7878 2.32668c-1.1486,0 -2.14753,-0.377575 -2.96249,-1.19254 -0.814962,-0.814962 -1.19254,-1.81361 -1.19254,-2.96249 0,-1.1486 0.377575,-2.14753 1.19254,-2.96249 0.814962,-0.814962 1.81389,-1.19254 2.96249,-1.19254 1.14945,0 2.13279,0.377859 2.94747,1.19254 0.814395,0.814395 1.20784,1.81219 1.20784,2.96249 0,1.1503 -0.393449,2.14838 -1.20784,2.96249 -0.814395,0.814678 -1.79802,1.19254 -2.94747,1.19254zm-3.07815 -4.15503c0,0.8606 0.261922,1.61915 0.872505,2.23711 0.600946,0.608316 1.35695,0.886112 2.20564,0.886112 0.850962,0 1.59081,-0.27893 2.19062,-0.886112 0.6103,-0.617387 0.887529,-1.37424 0.887529,-2.23711 0,-0.859749 -0.282331,-1.60951 -0.887529,-2.22208 -0.603213,-0.610584 -1.33257,-0.901135 -2.19062,-0.901135 -0.857198,0 -1.60214,0.290268 -2.20564,0.901135 -0.605481,0.612851 -0.872505,1.3646 -0.872505,2.22208zm10.7291 -2.9778c0.519875,-0.784064 1.37679,-1.10183 2.41484,-1.10183 0.121323,0 0.275244,-0.0056693 0.393449,0.0181418l0.13011 0.0260788 0 1.09928 -0.181985 -0.0226772c-0.153071,-0.0192756 -0.307559,-0.0289134 -0.462048,-0.0289134 -0.675497,0 -1.26822,0.201827 -1.6971,0.738143 -0.435119,0.543686 -0.597261,1.19991 -0.597261,1.88816l0 4.32057 -1.07717 0 0 -7.91831 1.07717 0 0 0.981356zm11.4937 0.172347l-0.665292 0.7543 -0.121606 -0.127559c-0.624757,-0.654237 -1.40939,-0.944505 -2.30911,-0.944505 -0.857482,0 -1.60214,0.290268 -2.20564,0.901135 -0.605481,0.613135 -0.872505,1.36432 -0.872505,2.22208 0,0.8606 0.261922,1.61915 0.872505,2.23711 0.600946,0.608032 1.35695,0.886112 2.20564,0.886112 0.899718,0 1.68435,-0.289985 2.30911,-0.944222l0.121606 -0.127559 0.665292 0.754017 -0.0992127 0.10715c-0.799655,0.865135 -1.82722,1.24243 -2.99679,1.24243 -1.14888,0 -2.14781,-0.377575 -2.96249,-1.19254 -0.814962,-0.814962 -1.19282,-1.81361 -1.19282,-2.96249 0,-1.1486 0.377859,-2.14753 1.19282,-2.96249 0.814678,-0.814962 1.81361,-1.19254 2.96249,-1.19254 1.16958,0 2.19714,0.377292 2.99679,1.24214l0.0992127 0.107433zm2.27849 -2.53134c-0.271843,-0.252851 -0.255685,-0.719434 -0.00765355,-0.982773 0.643182,-0.6823 1.66706,0.361985 0.996379,0.983057 -0.272977,0.252851 -0.715466,0.253985 -0.988726,-0.000283465zm-0.0362835 9.29595l0 -7.91831 1.07688 0 0 7.91831 -1.07688 0zm2.98347 -3.95916c0,-1.1486 0.377859,-2.14753 1.19282,-2.96249 0.814678,-0.814962 1.81361,-1.19254 2.96249,-1.19254 1.14945,0 2.13279,0.377859 2.94747,1.19254 0.814111,0.814395 1.20756,1.81219 1.20756,2.96249 0,1.15058 -0.393449,2.14838 -1.20756,2.96249 -0.814678,0.814678 -1.79802,1.19254 -2.94747,1.19254 -1.14888,0 -2.14781,-0.377575 -2.96249,-1.19254 -0.814962,-0.814962 -1.19282,-1.81361 -1.19282,-2.96249zm1.07717 0c0,0.8606 0.261922,1.61915 0.872505,2.23711 0.600946,0.608032 1.35666,0.886112 2.20564,0.886112 0.850962,0 1.59024,-0.27893 2.19062,-0.886112 0.6103,-0.617387 0.887529,-1.37424 0.887529,-2.23711 0,-0.859749 -0.282331,-1.60951 -0.887529,-2.22208 -0.60378,-0.610584 -1.33257,-0.901135 -2.19062,-0.901135 -0.857482,0 -1.60186,0.290268 -2.20564,0.901135 -0.605481,0.612851 -0.872505,1.36432 -0.872505,2.22208z"/>
   <g>
    <path id="_470943344" class="fil1" d="M4.50086 60.2808l0 -5.34388 2.50696 0c0.406489,0 0.850962,0.161008 1.22684,0.467717 0.375591,0.299056 0.651686,0.820348 0.651686,1.43377 0,0.544253 -0.199276,0.996663 -0.590458,1.35723 -0.390898,0.360001 -0.820348,0.536599 -1.28806,0.536599l-1.05024 0 0 1.54857 -1.45673 0zm1.45673 -2.86725l0 0 0.989009 0c0.068882,0 0.138047,-0.0155906 0.268441,-0.076819 0.145418,-0.0612284 0.237544,-0.245481 0.237544,-0.498331 0,-0.268441 -0.0921261,-0.45241 -0.237544,-0.513639 -0.145701,-0.0612284 -0.207213,-0.068882 -0.276095,-0.068882l-0.981356 0 0 1.15767z"/>
    <path id="_470943632" class="fil1" d="M14.7974 59.5832c-0.57515,0.536599 -1.2651,0.805041 -2.08545,0.805041 -0.820348,0 -1.5103,-0.268441 -2.08545,-0.805041 -0.574867,-0.544536 -0.858615,-1.19622 -0.858615,-1.95506 0,-0.759119 0.283748,-1.41081 0.858615,-1.95506 0.57515,-0.544536 1.2651,-0.812694 2.08545,-0.812694 0.820348,0 1.5103,0.268158 2.08545,0.812694 0.57515,0.536599 0.866269,1.18829 0.866269,1.95506 0,0.758836 -0.291119,1.41052 -0.866269,1.95506zm-3.12038 -0.920127l0 0c0.283748,0.283748 0.628725,0.421796 1.03493,0.421796 0.398835,0 0.743812,-0.145701 1.02756,-0.429449 0.291119,-0.291402 0.43682,-0.636379 0.43682,-1.02728 0,-0.390898 -0.145701,-0.736159 -0.43682,-1.02728 -0.283748,-0.291402 -0.628725,-0.437103 -1.02756,-0.437103 -0.398552,0 -0.743529,0.145701 -1.02728,0.437103 -0.283748,0.283465 -0.429449,0.628725 -0.429449,1.02728 0,0.406205 0.138047,0.751182 0.421796,1.03493z"/>
    <path id="_470943056" class="fil1" d="M16.5456 60.2808l0 -5.34388 2.43043 0c0.528946,0 0.981356,0.176315 1.35695,0.536883 0.375591,0.360284 0.55956,0.789733 0.55956,1.30337 0,0.6823 -0.360284,1.27247 -0.91219,1.52561l1.33399 1.97802 -1.67159 0 -1.08851 -1.66366 -0.0153071 0 -0.536599 0 0 1.66366 -1.45673 0zm1.45673 -2.82898l0 0 0.812694 0c0.390898,0 0.628725,-0.22989 0.628725,-0.628725 0,-0.337323 -0.22252,-0.567213 -0.506268,-0.567213l-0.935151 0 0 1.19594z"/>
    <path id="_470942984" class="fil1" d="M27.2175 55.6654c0.57515,0.536599 0.858899,1.18829 0.858899,1.9474 0,0.621072 -0.214583,1.17298 -0.644032,1.656l0.437103 0.490678 -0.958395 0.828001 -0.467717 -0.513639c-0.406205,0.191622 -0.843308,0.283748 -1.31103,0.283748 -0.812694,0 -1.50265,-0.268441 -2.0778,-0.797387 -0.574867,-0.536883 -0.858615,-1.18857 -0.858615,-1.9474 0,-0.759119 0.283748,-1.41081 0.858615,-1.9474 0.57515,-0.536883 1.2651,-0.805041 2.0778,-0.805041 0.820348,0 1.5103,0.268158 2.08517,0.805041zm-3.11245 2.97468l0 0c0.283465,0.276095 0.628442,0.413859 1.02728,0.413859 0.138047,0 0.252851,-0.00765355 0.35263,-0.0306142l-0.567213 -0.628725 0.958112 -0.828001 0.590458 0.659623c0.0844726,-0.161292 0.12274,-0.368221 0.12274,-0.613418 0,-0.390898 -0.145701,-0.728505 -0.429449,-1.01197 -0.283748,-0.291402 -0.628725,-0.437103 -1.02728,-0.437103 -0.398835,0 -0.743812,0.145701 -1.02728,0.429166 -0.283748,0.283748 -0.421796,0.629009 -0.421796,1.01991 0,0.406205 0.138047,0.743529 0.421796,1.02728z"/>
    <path id="_470942912" class="fil1" d="M28.9582 54.9369l1.45644 0 0 2.89049c0,0.88186 0.337607,1.21125 0.943088,1.21125 0.605765,0 0.943088,-0.329386 0.943088,-1.21125l0 -2.89049 1.45673 0 0 3.04385c0,0.774426 -0.22989,1.3646 -0.6823,1.77109 -0.45241,0.406205 -1.02756,0.605765 -1.71751,0.605765 -0.689954,0 -1.2651,-0.199559 -1.71723,-0.605765 -0.45241,-0.406489 -0.6823,-0.996663 -0.6823,-1.77109l0 -3.04385z"/>
    <polygon id="_470942768" class="fil1" points="34.6391,60.2808 34.6391,54.9369 38.5799,54.9369 38.5799,56.2482 36.0959,56.2482 36.0959,56.9841 38.4112,56.9841 38.4112,58.1803 36.0959,58.1803 36.0959,58.9927 38.6411,58.9927 38.6411,60.2808 "/>
   </g>
   <g>
    <path id="_470942744" class="fil1" d="M43.8673 58.4332c0.283748,0.390898 0.774426,0.65934 1.33399,0.65934 0.475371,0 0.713198,-0.130394 0.713198,-0.383245 0,-0.145701 -0.0921261,-0.245481 -0.299056,-0.329953 -0.0997797,-0.0382678 -0.206929,-0.0765355 -0.314363,-0.10715 -0.206929,-0.0612284 -0.590458,-0.176315 -0.843308,-0.268441 -0.820348,-0.306709 -1.23449,-0.820348 -1.23449,-1.54092 0,-0.505985 0.183969,-0.897167 0.559843,-1.18063 0.375591,-0.283748 0.828001,-0.421796 1.35695,-0.421796 0.88186,0 1.54092,0.283748 1.97802,0.850962l-0.958395 0.820348c-0.237544,-0.283465 -0.55956,-0.421796 -0.966049,-0.421796 -0.375591,0 -0.582521,0.138331 -0.582521,0.329953 0,0.153071 0.0535749,0.237544 0.214583,0.306709 0.0844726,0.0382678 0.176315,0.068882 0.268441,0.0918427 0.183969,0.0382678 0.605481,0.161008 0.943088,0.283748 0.919844,0.32967 1.29543,0.812694 1.29543,1.54092 0,1.03521 -0.712914,1.69455 -2.13137,1.69455 -0.597828,0 -1.08851,-0.107433 -1.47969,-0.329953 -0.383245,-0.222237 -0.674647,-0.490678 -0.881576,-0.804757l1.02728 -0.789733z"/>
    <path id="_470942672" class="fil1" d="M53.4779 59.5832c-0.574867,0.536599 -1.26482,0.805041 -2.08517,0.805041 -0.820348,0 -1.5103,-0.268441 -2.08545,-0.805041 -0.574867,-0.544536 -0.858615,-1.19622 -0.858615,-1.95506 0,-0.759119 0.283748,-1.41081 0.858615,-1.95506 0.57515,-0.544536 1.2651,-0.812694 2.08545,-0.812694 0.820348,0 1.5103,0.268158 2.08517,0.812694 0.57515,0.536599 0.866552,1.18829 0.866552,1.95506 0,0.758836 -0.291402,1.41052 -0.866552,1.95506zm-3.1201 -0.920127l0 0c0.283465,0.283748 0.628442,0.421796 1.03493,0.421796 0.398552,0 0.743529,-0.145701 1.02728,-0.429449 0.291402,-0.291402 0.437103,-0.636379 0.437103,-1.02728 0,-0.390898 -0.145701,-0.736159 -0.437103,-1.02728 -0.283748,-0.291402 -0.628725,-0.437103 -1.02728,-0.437103 -0.398835,0 -0.743812,0.145701 -1.02728,0.437103 -0.283748,0.283465 -0.429449,0.628725 -0.429449,1.02728 0,0.406205 0.138047,0.751182 0.421796,1.03493z"/>
    <polygon id="_470942504" class="fil1" points="55.4605,60.2808 55.4605,54.9369 56.7639,54.9369 59.0027,57.8045 59.0027,54.9369 60.3979,54.9369 60.3979,60.2808 59.2096,60.2808 56.8557,57.2985 56.8557,60.2808 "/>
    <polygon id="_470942600" class="fil1" points="61.5139,60.2808 61.5139,54.9369 62.9706,54.9369 62.9706,56.7925 64.9792,56.7925 64.9792,54.9369 66.436,54.9369 66.436,60.2808 64.9792,60.2808 64.9792,58.1265 62.9706,58.1265 62.9706,60.2808 "/>
    <path id="_470942720" class="fil1" d="M67.552 60.2808l2.17758 -5.34388 1.33399 0 2.17729 5.34388 -1.54092 0 -0.276095 -0.697607 -2.05455 0 -0.283748 0.697607 -1.53355 0zm2.20054 -1.82466l0 0 1.28806 0 -0.644032 -1.656 -0.644032 1.656z"/>
    <path id="_470942816" class="fil1" d="M74.3565 60.2808l0 -5.34388 2.43043 0c0.528946,0 0.981356,0.176315 1.35695,0.536883 0.375875,0.360284 0.559843,0.789733 0.559843,1.30337 0,0.6823 -0.360284,1.27247 -0.912474,1.52561l1.33399 1.97802 -1.67131 0 -1.08851 -1.66366 -0.0155906 0 -0.536599 0 0 1.66366 -1.45673 0zm1.45673 -2.82898l0 0 0.812694 0c0.391182,0 0.628725,-0.22989 0.628725,-0.628725 0,-0.337323 -0.222237,-0.567213 -0.505985,-0.567213l-0.935434 0 0 1.19594z"/>
   </g>
   <g>
    <polygon id="_470942384" class="fil1" points="83.3242,60.2808 83.3242,54.9369 84.6276,54.9369 86.8664,57.8045 86.8664,54.9369 88.2619,54.9369 88.2619,60.2808 87.0736,60.2808 84.7197,57.2985 84.7197,60.2808 "/>
    <path id="_470942528" class="fil1" d="M89.8238 60.2808l2.17729 -5.34388 1.33399 0 2.17729 5.34388 -1.54092 0 -0.276095 -0.697607 -2.05455 0 -0.283748 0.697607 -1.53326 0zm1.13443 -5.83456l0 0c0.0921261,-0.674363 0.498331,-1.13443 1.13499,-1.13443 0.199276,0 0.429166,0.0535749 0.6823,0.168662 0.260504,0.114803 0.452127,0.168378 0.574867,0.168378 0.168662,0 0.283748,-0.10715 0.337323,-0.321733l0.751466 0.122457c-0.107433,0.789733 -0.490961,1.18857 -1.15002,1.18857 -0.206929,0 -0.437103,-0.0538583 -0.697607,-0.168662 -0.260788,-0.115087 -0.45241,-0.168662 -0.57515,-0.168662 -0.176315,0 -0.276095,0.0918427 -0.306709,0.268158l-0.751466 -0.12274zm1.06583 4.0099l0 0 1.28806 0 -0.644032 -1.656 -0.644032 1.656z"/>
    <path id="_470942696" class="fil1" d="M101.164 59.5832c-0.57515,0.536599 -1.2651,0.805041 -2.08545,0.805041 -0.820348,0 -1.5103,-0.268441 -2.08545,-0.805041 -0.574867,-0.544536 -0.858615,-1.19622 -0.858615,-1.95506 0,-0.759119 0.283748,-1.41081 0.858615,-1.95506 0.57515,-0.544536 1.2651,-0.812694 2.08545,-0.812694 0.820348,0 1.5103,0.268158 2.08545,0.812694 0.574867,0.536599 0.866269,1.18829 0.866269,1.95506 0,0.758836 -0.291402,1.41052 -0.866269,1.95506zm-3.12067 -0.920127l0 0c0.283748,0.283748 0.629009,0.421796 1.03521,0.421796 0.398552,0 0.743812,-0.145701 1.02756,-0.429449 0.291119,-0.291402 0.43682,-0.636379 0.43682,-1.02728 0,-0.390898 -0.145701,-0.736159 -0.43682,-1.02728 -0.283748,-0.291402 -0.629009,-0.437103 -1.02756,-0.437103 -0.398552,0 -0.743812,0.145701 -1.02756,0.437103 -0.283465,0.283465 -0.429166,0.628725 -0.429166,1.02728 0,0.406205 0.138047,0.751182 0.421512,1.03493z"/>
   </g>
   <g>
    <polygon id="_470942144" class="fil1" points="107.67,60.2808 107.67,56.2559 106.229,56.2559 106.229,54.9369 110.538,54.9369 110.538,56.2559 109.127,56.2559 109.127,60.2808 "/>
    <polygon id="_470941976" class="fil1" points="112.128,60.2808 112.128,54.9369 116.068,54.9369 116.068,56.2482 113.584,56.2482 113.584,56.9841 115.9,56.9841 115.9,58.1803 113.584,58.1803 113.584,58.9927 116.13,58.9927 116.13,60.2808 "/>
    <polygon id="_470941784" class="fil1" points="117.72,60.2808 117.72,54.9369 118.916,54.9369 120.648,57.3674 122.381,54.9369 123.577,54.9369 123.577,60.2808 122.228,60.2808 122.228,57.4518 120.648,59.6368 119.069,57.4518 119.069,60.2808 "/>
   </g>
   <polygon id="_470941712" class="fil1" points="127.776,60.2808 127.776,54.9369 129.233,54.9369 129.233,58.9621 131.264,58.9621 131.264,60.2808 "/>
   <polygon id="_470942048" class="fil1" points="132.276,60.2808 132.276,54.9369 133.733,54.9369 133.733,60.2808 "/>
   <polygon id="_470942192" class="fil1" points="134.744,60.2808 134.744,54.9369 135.94,54.9369 137.673,57.3674 139.406,54.9369 140.601,54.9369 140.601,60.2808 139.252,60.2808 139.252,57.4518 137.673,59.6368 136.094,57.4518 136.094,60.2808 "/>
   <polygon id="_470941928" class="fil1" points="141.613,60.2808 141.613,54.9369 143.07,54.9369 143.07,60.2808 "/>
   <polygon id="_470941832" class="fil1" points="145.523,60.2808 145.523,56.2559 144.082,56.2559 144.082,54.9369 148.39,54.9369 148.39,56.2559 146.98,56.2559 146.98,60.2808 "/>
   <polygon id="_470941904" class="fil1" points="149.402,60.2808 149.402,54.9369 153.343,54.9369 153.343,56.2482 150.859,56.2482 150.859,56.9841 153.174,56.9841 153.174,58.1803 150.859,58.1803 150.859,58.9927 153.404,58.9927 153.404,60.2808 "/>
   <path id="_470942216" class="fil1" d="M155.443 58.4332c0.283748,0.390898 0.774426,0.65934 1.33427,0.65934 0.475371,0 0.712914,-0.130394 0.712914,-0.383245 0,-0.145701 -0.0921261,-0.245481 -0.299056,-0.329953 -0.0997797,-0.0382678 -0.206929,-0.0765355 -0.314363,-0.10715 -0.206929,-0.0612284 -0.590174,-0.176315 -0.843308,-0.268441 -0.820348,-0.306709 -1.23421,-0.820348 -1.23421,-1.54092 0,-0.505985 0.183969,-0.897167 0.55956,-1.18063 0.375591,-0.283748 0.828001,-0.421796 1.35695,-0.421796 0.881576,0 1.5412,0.283748 1.97802,0.850962l-0.958112 0.820348c-0.237827,-0.283465 -0.559843,-0.421796 -0.966049,-0.421796 -0.375875,0 -0.582804,0.138331 -0.582804,0.329953 0,0.153071 0.0538583,0.237544 0.214583,0.306709 0.0844726,0.0382678 0.176315,0.068882 0.268441,0.0918427 0.183969,0.0382678 0.605765,0.161008 0.942804,0.283748 0.920127,0.32967 1.29572,0.812694 1.29572,1.54092 0,1.03521 -0.712914,1.69455 -2.13109,1.69455 -0.598111,0 -1.08879,-0.107433 -1.47969,-0.329953 -0.383528,-0.222237 -0.67493,-0.490678 -0.88186,-0.804757l1.02728 -0.789733z"/>
   <polygon id="_470942360" class="fil1" points="10.3139,22.9422 10.3139,27.9457 19.6728,27.9457 19.6728,32.5891 10.3139,32.5891 10.3139,38.0603 22.1925,38.0603 22.1925,42.8474 4.55472,42.8474 4.55472,18.1551 22.1925,18.1551 22.1925,22.9422 "/>
   <path id="_470941952" class="fil1" d="M30.0031 24.5622l0 2.80744 0.0720001 0c0.935718,-2.15972 2.69944,-3.16744 5.07516,-3.16744 2.41172,0 3.92344,1.00772 5.00344,3.16744 0.935718,-2.15972 3.05944,-3.16744 5.32716,-3.16744 1.61972,0 3.38344,0.576001 4.46344,1.87172 1.22372,1.43972 0.971718,3.52744 0.971718,5.36316l0 11.4103 -5.29116 0 0 -9.6826c0,-0.719718 0.0720001,-2.51972 -0.108,-3.20372 -0.288,-1.15172 -1.152,-1.47544 -2.26772,-1.47544 -0.935718,0 -1.90772,0.539717 -2.30372,1.40372 -0.396001,0.863718 -0.360001,2.30372 -0.360001,3.27544l0 9.6826 -5.29116 0 0 -9.6826c0,-1.90772 0.360001,-4.71544 -2.37572,-4.71544 -2.77172,0 -2.66372,2.73572 -2.66372,4.71544l0 9.6826 -5.29116 0 0 -18.2852 5.03944 0z"/>
   <path id="_470942000" class="fil1" d="M54.3714 18.1551l5.29116 0 0 8.71088 0.144 0c0.900001,-1.8 2.41172,-2.66372 4.46344,-2.66372 5.21944,0 6.80316,5.18316 6.80316,9.5026 0,4.78744 -1.90772,9.5026 -7.41516,9.5026 -2.62744,0 -3.88744,-0.971718 -5.21916,-3.16744 -0.648001,0.791718 -0.864001,1.83572 -1.18772,2.80744l-2.87972 0 0 -24.6924zm5.36316 17.0255l0 0c0,1.008 0.0360001,2.15972 0.612001,3.05972 0.504001,0.791718 1.25972,1.25972 2.23172,1.25972 2.98744,0 2.98744,-3.81544 2.98744,-5.79516 0,-2.05172 0,-5.86716 -2.91544,-5.86716 -2.55572,0 -2.91572,2.77172 -2.91572,4.71544l0 2.62744z"/>
   <path id="_470942312" class="fil1" d="M78.848 24.5622l0 3.41944 0.0720001 0c0.539717,-1.94372 1.61972,-3.95944 3.92344,-3.77944l0.899718 0.0720001 0 5.29116c-4.03144,-0.216 -4.53516,3.05944 -4.53516,6.29916l0 6.98288 -5.29144 0 0 -18.2852 4.93144 0z"/>
   <path id="_470942288" class="fil1" d="M96.2332 42.8474c-0.216,-0.935718 -0.288,-1.90772 -0.252,-2.84344 -1.51172,2.15972 -3.09544,3.20344 -5.83116,3.20344 -3.23944,0 -5.75887,-1.72772 -5.75887,-5.18316 0,-2.69972 1.69172,-4.53544 4.10316,-5.43516 2.08772,-0.792001 5.00344,-0.936001 7.23488,-1.152l0 -0.432001c0,-0.791718 0.0722836,-1.72772 -0.467717,-2.41172 -0.468001,-0.611717 -1.368,-0.863718 -2.15972,-0.863718 -1.69172,0 -3.16772,0.863718 -3.16772,2.66372l-5.00316 -0.468001c0.540001,-4.42744 4.85916,-5.72316 8.7106,-5.72316 1.87172,0 4.31944,0.432001 5.79516,1.65572 1.87172,1.51172 1.692,3.52744 1.692,5.72316l0 8.53088c0,0.935718 0.0717166,1.83572 0.360001,2.73544l-5.25544 0zm-0.504001 -8.7466l0 0c-2.01544,0.216 -5.72316,0.684001 -5.72316,3.34744 0,1.43972 0.864001,2.41172 2.33972,2.41172 1.07972,0 2.05172,-0.576001 2.66372,-1.51172 0.755718,-1.152 0.719718,-2.232 0.719718,-3.52772l0 -0.719718z"/>
   <path id="_470940848" class="fil1" d="M115.85 31.5091c0,-1.65572 -0.864001,-3.27572 -2.77144,-3.27572 -2.91572,0 -3.27572,2.87972 -3.27572,5.21944 0,2.23172 0.0360001,5.39916 3.05972,5.39916 1.87172,0 2.80744,-1.47572 2.98744,-3.16744l5.03944 0.288c-0.432001,4.53516 -3.85144,7.23488 -8.31488,7.23488 -5.54316,0 -8.81888,-3.92344 -8.81888,-9.3226 0,-5.61516 3.38372,-9.6826 9.1426,-9.6826 4.24772,0 7.63116,2.73544 7.99116,7.01888l-5.03944 0.288z"/>
   <path id="_470941592" class="fil1" d="M140.291 33.8488c0,5.21916 -3.41972,9.3586 -8.81888,9.3586 -5.61544,0 -8.67488,-4.24744 -8.67488,-9.5386 0,-5.32716 3.09544,-9.4666 8.67488,-9.4666 5.72316,0 8.81888,4.24716 8.81888,9.6466zm-11.8066 -0.720001l0 0c0,2.088 -0.0357166,6.55116 2.98772,6.55116 2.98744,0 3.13144,-3.59944 3.13144,-5.79516 0,-1.43972 -0.0720001,-3.16744 -0.575717,-4.53544 -0.432001,-1.18772 -1.296,-1.65572 -2.51972,-1.65572 -2.84372,0 -3.02372,3.34772 -3.02372,5.43516z"/>
   <path id="_470941112" class="fil1" d="M143.063 24.5622l5.00344 0 0 3.09544 0.0717166 0c1.08,-2.33972 2.59172,-3.45544 5.25544,-3.45544 1.728,0 3.41944,0.539717 4.49916,2.01572 1.008,1.36772 1.008,3.67144 1.008,5.32716l0 11.3023 -5.29116 0 0 -9.82631c0,-1.872 0.252,-4.60744 -2.41172,-4.60744 -0.935718,0 -1.79972,0.539717 -2.23172,1.36772 -0.539717,1.044 -0.612001,2.08772 -0.612001,3.23972l0 9.82631 -5.29116 0 0 -18.2852z"/>
   <g>
    <path id="_470941088" class="fil1" d="M196.194 57.8597c-8.40559,4.65931 -18.9899,1.62199 -23.6523,-6.77906 -4.65506,-8.40757 -1.61915,-18.9896 6.7819,-23.6506 4.99494,-2.76775 9.66559,-5.35777 9.66559,-5.35777 1.41619,-0.783497 3.19578,-0.273544 3.98013,1.14038 0.785765,1.41647 0.273827,3.19692 -1.1401,3.97786 0,0 -4.66952,2.59059 -9.66502,5.36061 -5.5698,3.10026 -7.57844,10.1109 -4.50057,15.6901 3.09941,5.56612 10.1086,7.57702 15.6887,4.49802 3.78312,-2.09679 16.3233,-9.0482 16.3242,-9.0448 1.41364,-0.785198 3.19408,-0.276662 3.979,1.1401 0.781796,1.41251 0.27241,3.19493 -1.14321,3.97786 0,0 -12.5377,6.95113 -16.3182,9.04735z"/>
    <path id="_470941328" class="fil1" d="M193.381 44.7064c0,0 17.2233,-9.54795 18.0128,-9.98222 1.36914,-0.763088 3.09799,-0.268441 3.85853,1.10495 0.760537,1.37225 0.266457,3.09969 -1.10806,3.86023 -0.902269,0.501166 -18.0068,9.9842 -18.0068,9.9842l-2.75641 -4.96716z"/>
    <path id="_470941544" class="fil1" d="M189.852 38.3372c0,0 17.2225,-9.54398 18.0119,-9.98165 1.37055,-0.761387 3.09799,-0.26589 3.85994,1.10863 0.76082,1.3697 0.265323,3.09742 -1.10721,3.85966 -0.905104,0.498898 -18.0128,9.98392 -18.0128,9.98392l-2.75188 -4.97056z"/>
    <path id="_470941064" class="fil1" d="M186.325 31.9726c0,0 17.2202,-9.54653 18.0063,-9.98392 1.37339,-0.76082 3.10111,-0.267307 3.86278,1.10721 0.760537,1.37169 0.26504,3.09941 -1.10636,3.85994 -0.901702,0.500883 -18.0108,9.98477 -18.0108,9.98477l-2.75188 -4.96801z"/>
   </g>
  </g>
 </g>
</svg>
