<?xml version="1.0" encoding="utf-8"?>
<!-- Generator: Adobe Illustrator 23.0.1, SVG Export Plug-In . SVG Version: 6.00 Build 0)  -->
<svg version="1.1" xmlns="http://www.w3.org/2000/svg" xmlns:xlink="http://www.w3.org/1999/xlink" x="0px" y="0px"
	 viewBox="0 0 512 512" style="enable-background:new 0 0 512 512;" xml:space="preserve">
<style type="text/css">
	.st0{fill:#333333;}
</style>
<g id="Layer_1">
</g>
<g id="Layer_2">
	<g>
		<path class="st0" d="M256,484.5c61.03,0,118.42-23.77,161.57-66.93C460.73,374.42,484.5,317.03,484.5,256
			s-23.77-118.42-66.93-161.57C374.42,51.27,317.03,27.5,256,27.5S137.58,51.27,94.43,94.43C51.27,137.58,27.5,194.97,27.5,256
			s23.77,118.42,66.93,161.57C137.58,460.73,194.97,484.5,256,484.5z M256,59.5c108.35,0,196.5,88.15,196.5,196.5
			S364.35,452.5,256,452.5S59.5,364.35,59.5,256S147.65,59.5,256,59.5z"/>
		<path class="st0" d="M175.32,356.77c8.84,0,16-7.16,16-16v-92.02c0-8.84-7.16-16-16-16h-52.09c-8.84,0-16,7.16-16,16v92.02
			c0,8.84,7.16,16,16,16H175.32z M139.23,264.74h20.09v60.02h-20.09V264.74z"/>
		<path class="st0" d="M229.96,356.77h52.08c8.84,0,16-7.16,16-16V141c0-8.84-7.16-16-16-16h-52.08c-8.84,0-16,7.16-16,16v199.77
			C213.96,349.6,221.12,356.77,229.96,356.77z M245.96,157h20.08v167.77h-20.08V157z"/>
		<path class="st0" d="M336.68,356.77h52.09c8.84,0,16-7.16,16-16V195.64c0-8.84-7.16-16-16-16h-52.09c-8.84,0-16,7.16-16,16v145.13
			C320.68,349.6,327.84,356.77,336.68,356.77z M352.68,211.64h20.09v113.13h-20.09V211.64z"/>
	</g>
</g>
</svg>
