<svg xmlns="http://www.w3.org/2000/svg" width="106.6" height="88.104" viewBox="0 0 106.6 88.104">
  <g id="Logo_Consorcios" data-name="Logo Consorcios" transform="translate(1.5 1.5)">
    <path id="Caminho_4" data-name="Caminho 4" d="M516.909,327.278h7.758v-8.011a5.751,5.751,0,0,0-5.751-5.752H470.248a5.751,5.751,0,0,0-5.751,5.752V354.48c0,7.594.725,16.685,6.732,23.423,4.246,4.706,12.013,8.557,22.888,8.557,8.11,0,14.495-1.932,19.753-6.1v-50.04A3.04,3.04,0,0,1,516.909,327.278Zm44.556,6.417c-5.455-5.241-11.872-6.417-18.076-6.417H524.667v27.2c0,7.487-.31,15.295-7.767,23.1a29.281,29.281,0,0,1-3.031,2.776v15.22a3.04,3.04,0,0,0,3.04,3.04h12.424a3.04,3.04,0,0,0,3.04-3.04V377.247a2.266,2.266,0,0,1,2.267-2.267h9.392c5.562,0,12.193-.749,17.755-6.2s6.311-12.086,6.311-17.755C568.1,345.033,567.027,339.043,561.465,333.7Z" transform="translate(-464.497 -313.515)" fill="none" stroke="#fff" stroke-width="3"/>
  </g>
</svg>
